<svg version="1.1" id="Layer_1" xmlns="http://www.w3.org/2000/svg" xmlns:xlink="http://www.w3.org/1999/xlink" x="0px" y="0px"
	 width="100%" viewBox="0 0 1024 528" enable-background="new 0 0 1024 528" xml:space="preserve">
<path fill="#000000" opacity="1.000000" stroke="none" 
	d="
M406.319183,277.178284 
	C402.690308,275.714203 403.682068,272.821411 403.809387,270.545410 
	C404.040100,266.420471 402.521667,264.945435 398.354065,265.012634 
	C391.159485,265.128632 390.935516,264.911224 390.992249,257.914795 
	C391.029114,253.361984 388.994995,251.766693 384.884735,252.510864 
	C380.343201,253.333115 378.869385,251.442566 379.005188,247.106430 
	C379.198059,240.946228 379.202301,234.769043 378.975800,228.610580 
	C378.821289,224.410248 380.161285,222.596054 384.665466,222.687988 
	C396.327179,222.925980 407.998718,222.890549 419.662415,222.709442 
	C423.647247,222.647552 425.698120,223.809357 425.289185,228.064850 
	C424.850769,232.626694 427.757507,233.086349 431.334625,233.143341 
	C435.209900,233.205093 436.295929,231.260635 436.038116,227.836487 
	C435.938293,226.511276 436.096436,225.168182 436.029388,223.838669 
	C435.875519,220.787582 437.101654,219.031876 440.332520,219.130447 
	C443.324127,219.221710 445.152588,218.134293 445.011841,214.822678 
	C444.888763,211.927322 446.225189,210.484818 449.213196,210.652939 
	C452.213989,210.821777 454.076691,209.691284 453.766083,206.338928 
	C453.363831,201.997757 455.764923,201.005890 459.572327,201.012100 
	C495.738403,201.071014 531.904663,201.071503 568.070679,200.988464 
	C572.082642,200.979248 574.552307,201.944107 574.167969,206.558365 
	C573.924744,209.478699 575.450562,210.896866 578.399536,210.679352 
	C581.605286,210.442871 583.065247,212.139862 583.040283,215.128265 
	C583.014771,218.194260 584.827393,219.388962 587.412720,219.393463 
	C590.923584,219.399551 591.577148,221.274872 591.336670,224.211929 
	C591.201355,225.864838 591.274292,227.546661 591.390320,229.205872 
	C591.652893,232.961212 594.096985,233.620255 597.337524,233.576324 
	C600.610168,233.531937 602.440552,232.439087 602.099304,228.898773 
	C601.633728,224.068100 603.899780,222.587402 608.605957,222.697296 
	C619.932678,222.961731 631.273376,222.910904 642.601807,222.672348 
	C646.854004,222.582794 648.665283,223.743149 648.412109,228.295670 
	C648.060852,234.610168 648.111023,240.964569 648.351257,247.288132 
	C648.508850,251.433701 646.804810,253.469925 642.843811,252.835693 
	C636.909790,251.885544 635.511536,254.626205 636.308228,259.798218 
	C636.919312,263.765015 634.938782,265.033264 631.145264,265.061890 
	C624.331848,265.113342 624.134766,265.278259 624.226868,271.909149 
	C624.283752,276.008759 622.842590,277.565125 618.688049,277.426483 
	C611.362915,277.182037 604.021240,277.467194 596.692017,277.294952 
	C593.222351,277.213470 591.944580,278.552673 591.978760,281.976349 
	C592.078552,291.974792 591.862854,301.977020 592.014099,311.974060 
	C592.075195,316.014923 591.076721,318.501892 586.480103,318.059845 
	C583.098816,317.734741 582.116516,319.562744 582.294556,322.629089 
	C582.429565,324.953217 582.143127,327.302765 582.293518,329.624847 
	C582.542480,333.468964 581.808716,336.141479 577.066406,336.111908 
	C573.629272,336.090485 573.979004,339.000458 573.969238,341.287933 
	C573.926086,351.454285 574.014648,361.621490 573.922302,371.787170 
	C573.855713,379.114868 573.465454,386.440430 573.449036,393.767426 
	C573.441956,396.940308 572.335999,398.505646 569.085876,398.215790 
	C565.809265,397.923615 563.975708,399.137299 564.149231,402.691162 
	C564.307129,405.923096 562.488708,407.201447 559.476440,407.060394 
	C556.326172,406.912903 554.841248,408.284332 555.031311,411.503876 
	C555.254272,415.279663 553.136292,416.249634 549.695435,416.238159 
	C525.862671,416.158691 502.029419,416.166382 478.196594,416.240601 
	C474.622131,416.251740 472.284973,415.400208 472.665649,411.244263 
	C472.940491,408.244141 471.514465,406.926270 468.540039,407.149384 
	C465.341339,407.389343 463.366730,406.291351 463.611450,402.667969 
	C463.805389,399.796814 461.863434,398.717499 459.512543,398.752380 
	C454.683441,398.823975 453.864624,396.175140 453.901520,392.043793 
	C454.050323,375.379944 453.911438,358.713684 454.018005,342.049194 
	C454.041046,338.446503 453.732239,335.692291 449.082825,335.984375 
	C446.649017,336.137268 445.440125,334.772034 445.605988,332.229797 
	C445.725159,330.403137 445.605743,328.561798 445.699646,326.732483 
	C445.952393,321.807831 446.162109,317.184631 438.829987,317.930145 
	C435.899231,318.228149 435.734894,315.559387 435.737549,313.271484 
	C435.749237,303.271576 435.615265,293.269470 435.797119,283.272949 
	C435.865387,279.519409 434.723297,278.006348 430.768066,277.722748 
	C422.767914,277.149109 414.772766,277.560608 406.319183,277.178284 
M514.497864,333.907501 
	C518.825928,333.865112 523.154236,333.774384 527.481995,333.797424 
	C530.345764,333.812653 531.859619,332.649902 531.744934,329.640137 
	C531.675293,327.812103 531.763428,325.978394 531.765076,324.147247 
	C531.777771,309.830292 531.773315,295.513275 531.810730,281.196381 
	C531.816772,278.880920 531.604736,275.807617 534.948853,276.082367 
	C541.236572,276.598938 541.714539,272.769196 541.507996,268.249084 
	C541.390625,265.680267 541.996887,263.876587 544.951294,264.062805 
	C548.874329,264.310059 550.387085,262.494537 550.098633,258.691803 
	C549.817688,254.986511 551.877380,253.710602 555.344116,253.816895 
	C558.835510,253.923935 562.334717,253.750961 565.829529,253.786865 
	C568.437988,253.813675 569.919250,252.831940 569.900574,250.014236 
	C569.864136,244.521667 569.901917,239.028580 569.920349,233.535736 
	C569.929199,230.907852 568.641602,229.427170 566.016541,229.395660 
	C563.140808,229.361160 561.664062,228.104156 561.755005,225.166199 
	C561.840454,222.404892 560.420410,221.343170 557.746643,221.345291 
	C528.447083,221.368546 499.147491,221.361771 469.847931,221.324417 
	C467.395203,221.321289 466.043762,222.268082 466.061371,224.798386 
	C466.082794,227.876511 464.693451,229.456467 461.505157,229.278824 
	C458.474335,229.109955 457.367767,230.776901 457.394623,233.596451 
	C457.443787,238.756561 457.410004,243.917450 457.448425,249.077744 
	C457.472321,252.285034 458.894745,254.011719 462.346771,253.863419 
	C465.503479,253.727814 468.676971,253.974136 471.832764,253.828415 
	C475.532654,253.657578 477.544067,254.936050 477.276886,258.958954 
	C477.114136,261.409363 477.434143,263.993927 480.686523,263.923492 
	C485.345642,263.822662 486.633484,266.152649 486.589600,270.391693 
	C486.563324,272.930481 486.709625,276.133545 490.719116,275.827789 
	C494.907104,275.508423 495.551331,277.662354 495.507294,281.323425 
	C495.320923,296.803253 495.497070,312.287231 495.359589,327.768066 
	C495.320160,332.207428 496.937042,334.214355 501.516846,333.946625 
	C505.498383,333.713867 509.504669,333.904358 514.497864,333.907501 
M544.681824,388.254669 
	C545.887634,386.699188 547.643982,386.790833 549.261292,386.966187 
	C553.378723,387.412598 554.952820,385.777802 554.738037,381.592224 
	C554.457153,376.117767 554.541931,370.614716 554.703979,365.130890 
	C554.810120,361.538055 553.425598,359.771423 549.770752,360.070801 
	C546.110779,360.370636 543.946655,358.973938 544.153564,355.054260 
	C544.353149,351.273071 542.447998,350.267120 538.958679,350.290558 
	C521.994263,350.404449 505.028473,350.395355 488.063721,350.314392 
	C484.770782,350.298706 482.884155,351.310760 483.280365,354.869171 
	C483.713257,358.756775 482.074524,360.496826 478.161469,360.059235 
	C474.488831,359.648560 473.078857,361.300903 473.220184,364.966339 
	C473.425079,370.281311 473.368805,375.610138 473.290588,380.931091 
	C473.231659,384.938995 474.575958,387.334351 479.067902,386.982971 
	C481.901062,386.761322 483.619904,388.043976 483.230652,391.082123 
	C482.595734,396.037994 485.240723,396.843170 489.451813,396.792633 
	C504.918060,396.606964 520.387451,396.694305 535.855530,396.645630 
	C543.628845,396.621155 543.628723,396.588776 544.681824,388.254669 
M568.799377,278.065979 
	C564.734314,276.776825 560.573914,277.503326 556.455383,277.546173 
	C554.518311,277.566284 553.416138,278.787781 553.401733,280.774475 
	C553.377686,284.100494 553.365112,287.427856 553.434265,290.752869 
	C553.483032,293.098663 554.735962,294.265625 557.110901,294.640778 
	C568.674316,296.467438 570.306030,295.118561 569.986938,283.547302 
	C569.941833,281.910126 569.570251,280.281982 568.799377,278.065979 
M474.644287,286.940125 
	C474.636993,285.111206 474.668854,283.281097 474.613892,281.453613 
	C474.513824,278.127380 472.021545,277.604309 469.689178,278.071991 
	C465.625793,278.886749 460.064423,275.030396 457.719299,280.545074 
	C456.401917,283.642975 457.356750,287.761200 457.510437,291.410339 
	C457.602509,293.597565 459.193298,294.535400 461.262451,294.620148 
	C463.089539,294.694977 464.919983,294.713348 466.748932,294.713196 
	C474.044495,294.712524 474.044495,294.706238 474.644287,286.940125 
z"/>
<path fill="#000000" opacity="1.000000" stroke="none" 
	d="
M582.996216,151.000000 
	C582.991455,160.662552 582.835022,169.828781 583.054871,178.985992 
	C583.156189,183.206299 581.824036,185.013351 577.391296,184.989914 
	C534.748230,184.764267 492.103271,185.397598 449.459412,184.677505 
	C445.768524,184.615173 444.872162,183.163467 444.877991,179.927078 
	C444.911285,161.435257 444.895844,142.943069 444.797089,124.451553 
	C444.779358,121.133278 445.890656,119.359100 449.418945,119.647430 
	C450.246063,119.715012 451.084015,119.648903 451.916992,119.644882 
	C460.240417,119.604645 460.240448,119.604675 460.305328,128.058044 
	C460.355896,134.646912 460.487976,134.781662 466.982300,134.869476 
	C475.047852,134.978516 475.047852,134.978531 475.096375,143.360672 
	C475.139313,150.781281 478.060913,152.916748 485.337402,150.950882 
	C486.811768,150.552536 487.684998,149.795425 487.898346,148.300278 
	C487.968750,147.806976 487.969543,147.304153 488.024994,146.808228 
	C488.429688,143.188431 487.743408,138.843231 489.533875,136.138702 
	C491.642395,132.953812 496.349182,135.072433 499.899353,134.832458 
	C502.947632,134.626404 503.817383,133.302750 503.954956,130.465332 
	C504.478333,119.669930 504.550018,119.673462 515.537354,119.604065 
	C516.536926,119.597755 517.548706,119.688530 518.533813,119.565811 
	C522.327332,119.093231 524.369812,120.288605 523.472839,124.496880 
	C523.370483,124.977203 523.434082,125.493446 523.425293,125.993111 
	C523.270569,134.807312 523.270752,134.807312 532.149292,134.867935 
	C538.876953,134.913864 539.071228,135.110428 539.135986,141.943985 
	C539.140747,142.443741 539.143799,142.943542 539.143921,143.443314 
	C539.145020,150.807785 543.729309,153.704681 550.699707,150.843948 
	C552.749268,150.002777 552.514404,148.353027 552.666809,146.709564 
	C553.001404,143.100983 551.312622,138.818222 553.658020,136.032043 
	C556.014221,133.232986 560.282349,135.164474 563.690430,134.860367 
	C566.355042,134.622574 567.700256,133.556183 567.606140,130.844223 
	C567.588867,130.345261 567.611511,129.844849 567.618408,129.345123 
	C567.755127,119.447556 569.860168,117.879555 579.990967,119.687424 
	C583.061829,120.235428 583.030273,122.345604 583.036987,124.511116 
	C583.063904,133.173950 583.017639,141.837021 582.996216,151.000000 
z"/>
<path fill="#000000" opacity="1.000000" stroke="none" 
	d="
M525.396606,375.859375 
	C525.277222,373.808167 525.142944,372.160004 525.053650,370.509369 
	C524.901733,367.702667 526.091003,366.088745 529.057434,366.096863 
	C529.388000,366.097748 529.718811,366.077545 530.049255,366.060364 
	C540.541748,365.515442 543.160889,368.695679 540.882935,379.086761 
	C540.469727,380.971832 539.542419,382.070374 537.588440,382.112701 
	C535.273926,382.162842 532.947266,382.009827 530.644897,382.189087 
	C526.173035,382.537201 524.555054,380.531921 525.396606,375.859375 
z"/>
<path fill="#000000" opacity="1.000000" stroke="none" 
	d="
M501.689270,380.413483 
	C497.668518,383.398102 493.431610,381.913818 489.375244,382.010559 
	C487.818329,382.047729 487.034149,380.739624 486.991547,379.290558 
	C486.893768,375.963470 486.886658,372.631104 486.950348,369.302917 
	C486.988495,367.309753 488.272095,366.366913 490.142731,366.110535 
	C490.472321,366.065399 490.806091,366.023254 491.137726,366.024811 
	C503.112640,366.080627 502.706970,364.571350 501.689270,380.413483 
z"/>
</svg>